<svg xmlns="http://www.w3.org/2000/svg" enable-background="new 0 0 64 64" viewBox="0 0 64 64"><path fill="#2c4a9c" d="M39.56,52.02c-0.54-0.73-0.87-1.6-0.94-2.55c-0.01-0.11-0.01-0.22-0.01-0.35c0-0.59,0.1-1.17,0.31-1.7
		c0.24-0.68,0.62-1.29,1.14-1.8c0.58-0.59,1.31-1.02,2.1-1.25c0.01-1.66,0.76-3.15,1.94-4.14c0.52-0.45,1.14-0.8,1.81-1.01
		l-6.51-8.05c-0.18-0.23-0.45-0.37-0.74-0.38c-0.29-0.01-0.57,0.09-0.78,0.29l-8.91,8.75l-8.61-12.16c-0.19-0.28-0.5-0.44-0.84-0.44
		c-0.34,0.01-0.65,0.17-0.84,0.45L6.64,45.17V16.58h44.38v20.55c0.64-0.3,1.33-0.48,2.05-0.55c0.21-0.02,0.42-0.03,0.63-0.03
		c0.67,0,1.3,0.1,1.9,0.3c0.75,0.23,1.44,0.58,2.05,1.05V13.47c0-1.94-1.58-3.53-3.52-3.53H3.53C1.59,9.94,0,11.52,0,13.47v37.06
		c0,1.95,1.59,3.53,3.53,3.53h38.49c0.17,0,0.33-0.04,0.47-0.12C41.29,53.68,40.25,52.98,39.56,52.02z"/><path fill="#2c4a9c" d="M25.44 24.4c0 3.15 2.57 5.72 5.73 5.72 3.15 0 5.72-2.57 5.72-5.72 0-3.16-2.57-5.72-5.72-5.72C28.01 18.69 25.44 21.24 25.44 24.4zM58.92 42.38c-.31-2.64-2.56-4.63-5.22-4.63-1.87 0-3.63 1.02-4.6 2.66-.47-.18-.97-.27-1.5-.27-2.35 0-4.26 1.91-4.26 4.25 0 .3.04.62.06.97-.97.04-1.86.43-2.5 1.09-.13.12-.25.27-.35.4-.04.05-.25.37-.3.46 0 0-.21.46-.23.52-.15.4-.22.83-.22 1.27 0 .17.01.32.02.36l.05.35c.02.1.25.8.25.8.27.63.74 1.2 1.24 1.53.15.12.3.21.39.25.26.15.55.26.81.32.11.04.23.07.33.08.2.04.42.06.65.06h15.23c1.4 0 2.71-.55 3.7-1.54.99-.98 1.53-2.29 1.53-3.69C64 44.81 61.78 42.51 58.92 42.38z"/></svg>